<svg id="Layer_1" data-name="Layer 1" xmlns="http://www.w3.org/2000/svg" viewBox="0 0 1091.75 413.18"><defs><style>.cls-1{fill:none;stroke:#000;stroke-miterlimit:3.6;stroke-width:5.34px;}</style></defs><path class="cls-1" d="M137.51,300.41q0,17.77-6.44,30.85A47.08,47.08,0,0,1,113,351.38q-11.67,7-26.82,7H60.55c-1.49,0-2.24.93-2.24,2.77v55.73c0,2.65-.51,4.52-1.5,5.6A6.19,6.19,0,0,1,52.15,424H20.72c-1.86,0-3.13-.49-3.84-1.44a8.71,8.71,0,0,1-1-4.71V246.62c0-3.78,1.19-5.66,3.56-5.66H81.3a59.54,59.54,0,0,1,28.47,6.8A49.16,49.16,0,0,1,130,267.82Q137.5,281.14,137.51,300.41Zm-43.34-.72q0-8.67-4.48-14a13.88,13.88,0,0,0-11-5.29H62.6a4,4,0,0,0-3.38,1.26,6.56,6.56,0,0,0-.91,3.92v27.89a8.92,8.92,0,0,0,.73,4.22,2.66,2.66,0,0,0,2.41,1.2H79.8a12.16,12.16,0,0,0,10.44-5.55A23,23,0,0,0,94.17,299.69ZM273.74,416.14a8.11,8.11,0,0,1,.36,2.72,6.36,6.36,0,0,1-1.05,3.74,3.08,3.08,0,0,1-2.64,1.44H234.14q-3.93,0-5.07-5.18l-17.56-63.68a5.21,5.21,0,0,0-1.87-2.95,6.52,6.52,0,0,0-3.92-1h-8.58a1.8,1.8,0,0,0-1.68,1,3.54,3.54,0,0,0-.55,1.74v62.9c0,2.65-.51,4.52-1.51,5.6a6.15,6.15,0,0,1-4.65,1.57H157.32c-1.86,0-3.14-.49-3.84-1.44a8.71,8.71,0,0,1-1-4.71V246.62c0-3.78,1.19-5.66,3.56-5.66h62.4q27.1,0,42,13.67t14.95,38.61q0,17.06-6.84,30.37T251,342.34a2.8,2.8,0,0,0-1.13,2.48,10.23,10.23,0,0,0,.36,2.23Zm-57-101.69q7.11,0,11-4.76t3.83-13q0-9.09-4.61-14.16a14.63,14.63,0,0,0-11.32-5.06H199.19a4.16,4.16,0,0,0-3.37,1.15,6,6,0,0,0-.91,3.79v26.87a9.4,9.4,0,0,0,.63,4,2.59,2.59,0,0,0,2.51,1.2ZM353.94,426.5q-20.4,0-35.63-11.44t-23.45-32.59q-8.22-21.09-8.21-49.46T295,283.3q8.34-21.37,23.54-33.07t35.45-11.75A55.53,55.53,0,0,1,389,250.23q15.14,11.68,23.45,33.07T420.82,333q0,28.14-8.26,49.34T389.2,415.06Q374.1,426.51,353.94,426.5Zm0-38.49q8.21,0,13.05-5.3t7.11-17.11q2.23-11.87,2.24-31.87,0-30.6-5.25-43.92T353.94,276.5q-12.19,0-17.53,13.31t-5.29,43.92q0,20,2.24,31.87t7.16,17.11Q345.5,388,353.94,388Zm77.91-141.39a6.44,6.44,0,0,1,1.19-4A4.09,4.09,0,0,1,436.5,241H548.23a4,4,0,0,1,3.47,1.62,6.34,6.34,0,0,1,1.23,4V276q0,4.69-4.11,4.7H515.74c-1.49,0-2.23.82-2.23,2.46V418.61a7.2,7.2,0,0,1-1,4.1A3,3,0,0,1,510,424H474.46q-3.37,0-3.38-5V284.15c0-2.33-.68-3.49-2.05-3.49H436.14q-4.29,0-4.29-4.7ZM631.24,426.5q-20.4,0-35.63-11.44t-23.45-32.59Q564,361.38,564,333t8.3-49.71q8.36-21.37,23.54-33.07t35.45-11.75a55.53,55.53,0,0,1,35.08,11.75q15.15,11.68,23.45,33.07T698.12,333q0,28.14-8.26,49.34t-23.35,32.71Q651.41,426.51,631.24,426.5Zm0-38.49q8.22,0,13-5.3t7.12-17.11q2.24-11.87,2.23-31.87,0-30.6-5.25-43.92T631.24,276.5q-12.18,0-17.52,13.31t-5.29,43.92q0,20,2.23,31.87t7.17,17.11Q622.79,388,631.24,388ZM775.85,238.48a54.56,54.56,0,0,1,28,7.29,58.52,58.52,0,0,1,20.58,20.07,75.28,75.28,0,0,1,10.45,29.4,25.63,25.63,0,0,1,.59,4.69,4.42,4.42,0,0,1-.69,2.95,3.75,3.75,0,0,1-2.32,1l-32.71,2.71c-1.25,0-2.06-.28-2.42-.84a13,13,0,0,1-1.14-3.86q-1.65-11.81-6.16-18.56t-13-6.8q-11,0-17,12.83T754,331q0,29.82,5.47,42.41t17.3,12.6a23.7,23.7,0,0,0,16.92-6.63q7-6.69,11.68-22.23c.36-1.49,1.43-2.23,3.19-2.23a7.1,7.1,0,0,1,2.05.24l23.36,6.2c1.86.8,2.78,2.69,2.78,5.66q0,6.93-6.43,21.4T810.16,414.7q-13.73,11.81-34.67,11.8A52.71,52.71,0,0,1,740.72,414q-15-12.48-23.08-34.28T709.52,330q0-27.58,8.12-48.31t23.18-31.93Q755.87,238.49,775.85,238.48Zm138.86,188q-20.4,0-35.63-11.44t-23.45-32.59q-8.21-21.09-8.21-49.46t8.3-49.71q8.35-21.37,23.54-33.07t35.45-11.75a55.53,55.53,0,0,1,35.08,11.75q15.15,11.68,23.45,33.07T981.59,333q0,28.14-8.26,49.34T950,415.06Q934.88,426.51,914.71,426.5Zm0-38.49q8.22,0,13-5.3t7.12-17.11q2.24-11.87,2.24-31.87,0-30.6-5.25-43.92T914.71,276.5q-12.18,0-17.52,13.31t-5.29,43.92q0,20,2.23,31.87t7.17,17.11Q906.27,388,914.71,388Zm82.38-141.39a7.8,7.8,0,0,1,.92-4.16,3,3,0,0,1,2.64-1.5h35.5c2.25,0,3.37,1.72,3.37,5.18v134a5.63,5.63,0,0,0,.45,2.71,2,2,0,0,0,1.79.72H1098q4.27,0,4.28,4.71v30.35a6.15,6.15,0,0,1-1.23,4,4.19,4.19,0,0,1-3.42,1.44h-95.48c-1.89,0-3.21-.49-4-1.44a8.12,8.12,0,0,1-1.1-4.71Z" transform="translate(-13.21 -16)"/><path d="M133.3,119.86C143.47,110.92,149,98,149,80.1c0-35.75-24.34-61.33-61.33-61.33H15.88V225.26h75.2c38.83,0,62-26.81,62-62.56C153,144.51,146.25,129.72,133.3,119.86ZM87.69,64.69c7.7,0,14.79,5.24,14.79,16S96.93,98,87.69,98H62.42V64.69Zm-25.27,79.2H91.08c9.56,0,15.41,6.48,15.41,17.58s-5.85,17.87-15.41,17.87H62.42Z" transform="translate(-13.21 -16)"/><path d="M325.31,225.26,265.83,18.77H221.44L162,225.26H210l11.1-40.68h44.69l10.78,40.68ZM232.85,140.2l10.79-52.39,11.09,52.39Z" transform="translate(-13.21 -16)"/><path d="M340.72,18.77V225.26h67.8c46.85,0,68.72-30.2,68.72-73.66V92.43c0-43.46-21.87-73.66-68.72-73.66Zm90,132.83c0,20-7.09,27.74-22.19,27.74H387.26V64.69h21.26c15.1,0,22.19,7.71,22.19,27.74Z" transform="translate(-13.21 -16)"/><path d="M568.17,228.34c46.84,0,68.72-30.2,68.72-73.66V115.23H568.47V155h21.88v.31c0,19.41-7.09,27.12-22.18,27.12-14.8,0-21.89-7.71-21.89-27.74v-65c0-20,7.09-27.73,22.19-27.73,14.79,0,21.88,7.7,21.88,27.73h46.54C636.89,46.2,615,16,568.47,16c-46.84,0-68.73,30.2-68.73,73.65v65C499.74,198.14,521.63,228.34,568.17,228.34Z" transform="translate(-13.21 -16)"/><path d="M676,18.77V225.26H781.12V179.34H722.57V143.89H772.8V98H722.57V64.69h58.55V18.77Z" transform="translate(-13.21 -16)"/></svg>