<svg width="368" height="323" viewBox="0 0 368 323" fill="none" xmlns="http://www.w3.org/2000/svg">
<path d="M123.204 195.036V148.82H158.396V195.036H123.204ZM140.8 154.756C128.928 154.756 118.187 152.777 108.576 148.82C98.9653 144.863 90.6973 139.351 83.772 132.284C76.8467 125.217 71.476 117.02 67.66 107.692C63.9853 98.364 62.148 88.3293 62.148 77.588C62.148 66.8467 63.9853 56.812 67.66 47.484C71.476 38.156 76.776 30.0293 83.56 23.104C90.4853 16.0373 98.7533 10.596 108.364 6.77999C118.116 2.82266 128.928 0.843994 140.8 0.843994C152.531 0.843994 163.201 2.82266 172.812 6.77999C182.564 10.596 190.832 16.0373 197.616 23.104C204.541 30.0293 209.912 38.2267 213.728 47.696C217.544 57.024 219.452 66.988 219.452 77.588C219.452 88.3293 217.544 98.364 213.728 107.692C209.912 117.02 204.541 125.217 197.616 132.284C190.832 139.351 182.564 144.863 172.812 148.82C163.201 152.777 152.531 154.756 140.8 154.756ZM140.8 124.44C147.019 124.44 152.743 123.309 157.972 121.048C163.343 118.645 167.936 115.324 171.752 111.084C175.568 106.844 178.536 101.897 180.656 96.244C182.776 90.4493 183.836 84.2307 183.836 77.588C183.836 70.9453 182.776 64.7973 180.656 59.144C178.536 53.4907 175.568 48.544 171.752 44.304C167.936 40.064 163.343 36.8133 157.972 34.552C152.743 32.1493 147.019 30.948 140.8 30.948C134.44 30.948 128.645 32.1493 123.416 34.552C118.187 36.8133 113.593 40.064 109.636 44.304C105.82 48.544 102.852 53.5613 100.732 59.356C98.7533 65.0093 97.764 71.0867 97.764 77.588C97.764 84.2307 98.7533 90.4493 100.732 96.244C102.852 101.897 105.82 106.844 109.636 111.084C113.593 115.324 118.187 118.645 123.416 121.048C128.645 123.309 134.44 124.44 140.8 124.44Z" fill="black"/>
<path d="M238.284 152V3.6H306.124C316.158 3.6 325.274 5.79067 333.472 10.172C341.81 14.5533 348.382 20.6307 353.188 28.404C358.134 36.1773 360.608 45.152 360.608 55.328C360.608 64.7973 358.346 73.348 353.824 80.98C349.301 88.4707 343.365 94.548 336.016 99.212L347.888 119.352C348.594 120.341 349.372 121.119 350.22 121.684C351.209 122.249 352.481 122.532 354.036 122.532H367.18V152H346.404C340.044 152 334.249 150.516 329.02 147.548C323.79 144.439 319.692 140.411 316.724 135.464L300.824 107.268C299.834 107.268 298.774 107.268 297.644 107.268C296.654 107.268 295.594 107.268 294.464 107.268H273.9V152H238.284ZM273.9 77.8H302.096C306.194 77.8 310.01 76.952 313.544 75.256C317.077 73.4187 319.833 70.8747 321.812 67.624C323.932 64.232 324.992 60.204 324.992 55.54C324.992 50.876 323.932 46.9187 321.812 43.668C319.692 40.276 316.865 37.732 313.332 36.036C309.94 34.1987 306.194 33.28 302.096 33.28H273.9V77.8Z" fill="black"/>
<path d="M51.806 184.068C52.5633 182.648 53.8413 181.654 55.64 181.086C57.4387 180.518 59.8053 180.234 62.74 180.234C65.7693 180.234 68.1833 180.518 69.982 181.086C71.7807 181.654 73.0113 182.648 73.674 184.068C74.4313 185.488 74.8573 186.766 74.952 187.902C75.1413 188.943 75.236 190.553 75.236 192.73V277.504C75.236 279.681 75.1413 281.338 74.952 282.474C74.8573 283.515 74.4313 284.699 73.674 286.024C72.254 288.58 68.2307 289.858 61.604 289.858C55.072 289.858 51.4273 287.539 50.67 282.9C46.694 287.444 41.156 289.716 34.056 289.716C25.536 289.716 17.7733 286.024 10.768 278.64C3.76268 271.161 0.26001 262.499 0.26001 252.654C0.26001 242.714 3.76268 234.005 10.768 226.526C17.868 219.047 25.6307 215.308 34.056 215.308C41.0613 215.308 46.5047 217.675 50.386 222.408V192.588C50.386 190.411 50.4333 188.801 50.528 187.76C50.7173 186.624 51.1433 185.393 51.806 184.068ZM28.802 261.174C31.2633 263.73 34.2453 265.008 37.748 265.008C41.2507 265.008 44.138 263.73 46.41 261.174C48.7767 258.618 49.96 255.825 49.96 252.796C49.96 249.672 48.824 246.785 46.552 244.134C44.3747 241.483 41.3927 240.158 37.606 240.158C33.8193 240.158 30.79 241.483 28.518 244.134C26.246 246.69 25.11 249.53 25.11 252.654C25.11 255.778 26.3407 258.618 28.802 261.174Z" fill="black"/>
<path d="M137.383 216.018C139.182 216.586 140.649 217.58 141.785 219C143.016 220.325 143.631 222.503 143.631 225.532C143.631 228.561 142.732 231.875 140.933 235.472C139.135 239.069 136.531 240.868 133.123 240.868C131.419 240.868 129.763 240.489 128.153 239.732C126.639 238.975 124.603 238.596 122.047 238.596C119.491 238.596 117.077 239.495 114.805 241.294C112.628 243.093 111.539 245.27 111.539 247.826V277.646C111.539 279.823 111.445 281.48 111.255 282.616C111.161 283.657 110.735 284.888 109.977 286.308C108.557 288.769 104.865 290 98.9012 290C94.3572 290 91.0912 289.195 89.1032 287.586C87.5885 286.261 86.7365 284.225 86.5472 281.48C86.5472 280.533 86.5472 279.161 86.5472 277.362V227.52C86.5472 225.343 86.5945 223.733 86.6892 222.692C86.8785 221.556 87.3045 220.325 87.9672 219C89.2925 216.444 92.9845 215.166 99.0432 215.166C104.723 215.166 108.273 216.255 109.693 218.432C110.735 219.947 111.255 221.509 111.255 223.118C111.729 222.455 112.391 221.651 113.243 220.704C114.19 219.757 116.131 218.479 119.065 216.87C122 215.261 124.556 214.456 126.733 214.456C129.005 214.456 130.899 214.598 132.413 214.882C133.928 215.071 135.585 215.45 137.383 216.018Z" fill="black"/>
<path d="M145.017 252.654C145.017 241.294 148.993 231.922 156.945 224.538C164.897 217.154 173.985 213.462 184.209 213.462C194.433 213.462 203.473 217.154 211.331 224.538C219.188 231.827 223.117 241.152 223.117 252.512C223.117 260.369 221.081 267.375 217.011 273.528C212.94 279.587 207.97 284.083 202.101 287.018C196.326 289.858 190.315 291.278 184.067 291.278C177.819 291.278 171.76 289.763 165.891 286.734C160.021 283.61 155.051 279.066 150.981 273.102C147.005 267.043 145.017 260.227 145.017 252.654ZM174.695 262.878C177.724 265.15 180.801 266.286 183.925 266.286C187.049 266.286 190.173 265.103 193.297 262.736C196.421 260.369 197.983 256.867 197.983 252.228C197.983 247.589 196.515 244.134 193.581 241.862C190.646 239.59 187.475 238.454 184.067 238.454C180.659 238.454 177.487 239.637 174.553 242.004C171.618 244.371 170.151 247.873 170.151 252.512C170.151 257.056 171.665 260.511 174.695 262.878Z" fill="black"/>
<path d="M232.291 310.306V227.378C232.291 225.201 232.339 223.591 232.433 222.55C232.623 221.509 233.049 220.325 233.711 219C235.037 216.444 238.208 215.166 243.225 215.166C248.243 215.166 251.603 215.829 253.307 217.154C255.106 218.385 256.147 220.231 256.431 222.692C260.029 217.769 265.661 215.308 273.329 215.308C281.092 215.308 288.429 218.953 295.339 226.242C302.25 233.531 305.705 242.004 305.705 251.66C305.705 261.316 302.25 269.789 295.339 277.078C288.523 284.367 281.234 288.012 273.471 288.012C265.709 288.012 260.076 285.835 256.573 281.48V310.164C256.573 312.341 256.479 313.951 256.289 314.992C256.195 316.033 255.769 317.217 255.011 318.542C254.349 319.962 253.165 320.956 251.461 321.524C249.757 322.092 247.438 322.376 244.503 322.376C241.569 322.376 239.202 322.092 237.403 321.524C235.699 320.956 234.469 320.009 233.711 318.684C233.049 317.359 232.623 316.175 232.433 315.134C232.339 314.093 232.291 312.483 232.291 310.306ZM260.407 243.424C258.23 245.98 257.141 248.773 257.141 251.802C257.141 254.831 258.23 257.624 260.407 260.18C262.679 262.641 265.519 263.872 268.927 263.872C272.43 263.872 275.365 262.641 277.731 260.18C280.193 257.719 281.423 254.926 281.423 251.802C281.423 248.678 280.287 245.885 278.015 243.424C275.743 240.868 272.761 239.59 269.069 239.59C265.472 239.59 262.585 240.868 260.407 243.424Z" fill="black"/>
</svg>
